<svg xmlns="http://www.w3.org/2000/svg" width="400" height="400"><path fill="#FDFCFD" d="m199.25-.375 2.36.002C227.724-.29 253.734 4.07 278 14l3.316 1.355q4.352 1.8 8.684 3.645v2l1.688.375c2.533.685 4.891 1.616 7.312 2.625v2l1.688.375c2.533.685 4.891 1.616 7.312 2.625v2l1.625.313c3 .868 5.613 2.243 8.375 3.687v2l3 1v2h3v2h3v3h3v2h3c1.688 1.375 1.688 1.375 3 3v2h3v3l4 1v3l3-1v4h3v3h3l1 3 2 1v3h3l1 3 2 1 1 3 2 1v4h3v4h3l.313 1.938L371 92l3 1 1 5h2v6h3v5h3l1 7h2l.375 2.938L387 122l2 1 1 7 2 1v9h3l.148 1.863.227 2.45c.07.8.14 1.6.21 2.425.31 2.534.31 2.534 2.415 5.262.195 2.262.195 2.262.125 4.688l-.055 2.449L398 161h2v79h-2v9h-2l-.148 2.371-.227 3.066c-.07 1.01-.14 2.02-.21 3.06-.138.825-.274 1.652-.415 2.503l-2 1c-.39 1.865-.39 1.865-.5 4-.156 2.188-.156 2.188-.5 4l-2 1c-.465 1.895-.465 1.895-.625 4.063L389 278h-2l-.375 2.938L386 284l-2 1c-.658 3.03-.658 3.03-1 6h-3v6h-2l-1 6-3-1 .188 2.375L374 307l-3 2-1 3-2 1-1 3-2 1a178 178 0 0 0-2 4c-1.5 2.25-1.5 2.25-3 4h-2v4h-3v3h-3v4h-3v3h-3v3h-3v3l-3 1-2 2.563-2 2.437h-3v2h-3v3h-3v2c-1.312 1.625-1.312 1.625-3 3h-3v2c-1.977 1.367-1.977 1.367-4.625 2.875-3.02 1.742-5.968 3.484-8.812 5.5C305 373 305 373 302 373v2c-5.625 3-5.625 3-9 3l-1 2c-10.55 6.029-22.518 9.701-34.125 13.125l-2.286.695c-17.841 5.094-35.474 6.874-53.964 6.68l-3.104-.015c-15.174-.084-29.737-.793-44.521-4.485l-2.096-.485c-4.356-1.01-8.626-2.216-12.904-3.515l-2.309-.68c-9.26-2.734-18.289-5.439-26.691-10.32v-2l-6-1v-2l-1.687-.375C99.779 374.94 97.42 374.009 95 373v-2l-1.625-.312c-3-.869-5.613-2.244-8.375-3.688v-2h-3v-2l-3-1v-2h-3v-2h-3v-3h-3v-2h-3a91 91 0 0 1-4-4l-2-1v-3l-4-1v-3l-3 1v-4h-3v-3h-3l-1-3-2-1v-3h-3l-1-3-2-1v-4h-3v-4h-3v-4h-3l-.312-1.875c-.563-2.49-.563-2.49-3.688-4.125-.187-2.625-.187-2.625 0-5l-3 1-1-6h-2l-.375-2.437L19 291l-2-1v-7h-3l-1-6h-2l-.586-6.152L10 269l-2-1c-.391-2.063-.507-4.094-.656-6.187L7 260l-2-1c-.414-2.723-.414-2.723-.625-6.062l-.227-3.348L4 247H2v-9H0v-75h2v-10h2l.148-2.371.227-3.066c.07-1.01.14-2.02.21-3.06L5 142l2-1c.39-1.865.39-1.865.5-4 .156-2.187.156-2.187.5-4l2-1c.39-1.865.39-1.865.5-4 .156-2.187.156-2.187.5-4l2-1c.658-3.03.658-3.03 1-6h3v-7h3v-5h3v-6h3v-5h2l.875-2.437C30 89 30 89 32 88l1-3 2-1c.652-2.025.652-2.025 1-4h3v-3l2-1c.652-2.025.652-2.025 1-4h3v-3h3v-4h3v-3h3v-3h3v-3l4-1v-2c1.313-1.625 1.313-1.625 3-3h3v-2c1.313-1.625 1.313-1.625 3-3h3l1-3 2-2h3v-2c1.426-1.29 1.426-1.29 3.313-2.625l1.863-1.352C86 33 86 33 89 33v-2c5.625-3 5.625-3 9-3v-2h3v-2l6-1v-2h3l1-2c13.71-7.206 29.837-11.526 44.875-14.812l2.695-.59C172.142.78 185.429-.412 199.25-.375"/><path fill="#330299" d="m199.25-.375 2.36.002C227.724-.29 253.734 4.07 278 14l3.316 1.355q4.352 1.8 8.684 3.645v2l1.688.375c2.533.685 4.891 1.616 7.312 2.625v2l1.688.375c2.533.685 4.891 1.616 7.312 2.625v2l1.625.313c3 .868 5.613 2.243 8.375 3.687v2l3 1v2h3v2h3v3h3v2h3c1.688 1.375 1.688 1.375 3 3v2h3v3l4 1v3l3-1v4h3v3h3l1 3 2 1v3h3l1 3 2 1 1 3 2 1v4h3v4h3l.313 1.938L371 92l3 1 1 5h2v6h3v5h3l1 7h2l.375 2.938L387 122l2 1 1 7 2 1v9h3l.148 1.863.227 2.45c.07.8.14 1.6.21 2.425.31 2.534.31 2.534 2.415 5.262.195 2.262.195 2.262.125 4.688l-.055 2.449L398 161h2v79h-2v9h-2l-.148 2.371-.227 3.066c-.07 1.01-.14 2.02-.21 3.06-.138.825-.274 1.652-.415 2.503l-2 1c-.39 1.865-.39 1.865-.5 4-.156 2.188-.156 2.188-.5 4l-2 1c-.465 1.895-.465 1.895-.625 4.063L389 278h-2l-.375 2.938L386 284l-2 1c-.658 3.03-.658 3.03-1 6h-3v6h-2l-1 6-3-1 .188 2.375L374 307l-3 2-1 3-2 1-1 3-2 1a178 178 0 0 0-2 4c-1.5 2.25-1.5 2.25-3 4h-2v4h-3v3h-3v4h-3v3h-3v3h-3v3l-3 1-2 2.563-2 2.437h-3v2h-3v3h-3v2c-1.312 1.625-1.312 1.625-3 3h-3v2c-1.977 1.367-1.977 1.367-4.625 2.875-3.02 1.742-5.968 3.484-8.812 5.5C305 373 305 373 302 373v2c-5.625 3-5.625 3-9 3l-1 2c-10.55 6.029-22.518 9.701-34.125 13.125l-2.286.695c-17.841 5.094-35.474 6.874-53.964 6.68l-3.104-.015c-15.174-.084-29.737-.793-44.521-4.485l-2.096-.485c-4.356-1.01-8.626-2.216-12.904-3.515l-2.309-.68c-9.26-2.734-18.289-5.439-26.691-10.32v-2l-6-1v-2l-1.687-.375C99.779 374.94 97.42 374.009 95 373v-2l-1.625-.312c-3-.869-5.613-2.244-8.375-3.688v-2h-3v-2l-3-1v-2h-3v-2h-3v-3h-3v-2h-3a91 91 0 0 1-4-4l-2-1v-3l-4-1v-3l-3 1v-4h-3v-3h-3l-1-3-2-1v-3h-3l-1-3-2-1v-4h-3v-4h-3v-4h-3l-.312-1.875c-.563-2.49-.563-2.49-3.688-4.125-.187-2.625-.187-2.625 0-5l-3 1-1-6h-2l-.375-2.437L19 291l-2-1v-7h-3l-1-6h-2l-.586-6.152L10 269l-2-1c-.391-2.063-.507-4.094-.656-6.187L7 260l-2-1c-.414-2.723-.414-2.723-.625-6.062l-.227-3.348L4 247H2v-9H0v-75h2v-10h2l.148-2.371.227-3.066c.07-1.01.14-2.02.21-3.06L5 142l2-1c.39-1.865.39-1.865.5-4 .156-2.187.156-2.187.5-4l2-1c.39-1.865.39-1.865.5-4 .156-2.187.156-2.187.5-4l2-1c.658-3.03.658-3.03 1-6h3v-7h3v-5h3v-6h3v-5h2l.875-2.437C30 89 30 89 32 88l1-3 2-1c.652-2.025.652-2.025 1-4h3v-3l2-1c.652-2.025.652-2.025 1-4h3v-3h3v-4h3v-3h3v-3h3v-3l4-1v-2c1.313-1.625 1.313-1.625 3-3h3v-2c1.313-1.625 1.313-1.625 3-3h3l1-3 2-2h3v-2c1.426-1.29 1.426-1.29 3.313-2.625l1.863-1.352C86 33 86 33 89 33v-2c5.625-3 5.625-3 9-3v-2h3v-2l6-1v-2h3l1-2c13.71-7.206 29.837-11.526 44.875-14.812l2.695-.59C172.142.78 185.429-.412 199.25-.375M127 35v2l-1.941.262C118.768 38.284 114.83 39.8 110 44v2l-2.812.063C97.194 47.53 88.383 56.701 81 63l-2.328 1.918C74.647 68.294 71.799 71.501 69 76l-4 4v2h-2c-1.55 1.414-1.55 1.414-3.062 3.25l-1.598 1.828c-1.394 2-1.913 3.54-2.34 5.922l-1.82.152c-3.25 1.264-3.668 3.28-5.055 6.41-1.798 3.837-3.542 7.25-6.187 10.563-2.845 3.57-4.754 7.307-6.711 11.418-1.5 3.005-3.254 5.777-5.114 8.57-2.484 4.21-3.643 8.651-4.738 13.387-.26 1.103-.52 2.207-.79 3.344A35 35 0 0 0 25 155h-2q-.98 3.934-1.937 7.875l-.553 2.203c-2.658 11.018-2.696 21.98-2.695 33.253-.002 2.531-.02 5.063-.04 7.595-.04 11.493.942 21.994 4.225 33.074q.453 2.31.875 4.625C25.109 254.999 29.305 265.459 34 276l1.492 3.563c1.377 3.137 2.89 6.08 4.57 9.062 1.49 2.644 2.855 5.157 3.938 7.992 1.03 2.455 2.139 3.943 3.938 5.883 2.4 2.686 4.306 5.34 6.062 8.5l2 3h3l.688 1.625c1.768 3.2 3.849 5.665 6.312 8.375h2l.785 1.738c1.317 2.452 2.825 4.354 4.653 6.45l1.808 2.105c1.745 1.946 1.745 1.946 4.754 2.707l1.75 2.313c2.237 2.672 4.272 3.979 7.328 5.585 2.136 1.225 3.988 2.643 5.922 4.164 3.487 2.68 6.925 4.252 11 5.938q2.395 1.373 4.75 2.813c8.957 5.441 17.534 9.898 27.555 13.03 3.281 1.027 6.515 2.14 9.757 3.282 6.55 2.168 13.154 3.647 19.938 4.875l3.46.629c26.831 4.09 60.313 3.364 85.415-8.004 4.403-1.93 8.822-3.581 13.375-5.125 4.603-1.623 8.57-3.319 12.586-6.07 2.27-1.5 4.614-2.813 6.996-4.126a181 181 0 0 0 17.043-10.679l1.858-1.3c1.462-1.054 2.871-2.184 4.267-3.325v-2l1.875-.875c2.258-1.062 2.258-1.062 4.125-3.125 2.125-.625 2.125-.625 4-1v-2l3-1c1.709-1.375 1.709-1.375 3-3v-2l3-1c1.659-1.558 1.659-1.558 3.188-3.437l1.605-1.872c1.4-1.616 1.4-1.616 1.207-3.691h4q1.011-2.37 2-4.75l1.125-2.672c1.09-2.756 1.09-2.756.875-6.578l3-1v-4l1.813-.187c3.131-1.164 3.806-2.843 5.187-5.813v-4l3-1v-6l1.84-.223c2.973-1.07 3.39-2.394 4.723-5.214 2.06-4.408 3.582-8.841 4.859-13.532C371 259 371 259 372 257c.196-2.138.317-4.274.426-6.418.574-2.582.574-2.582 2.543-5.773 2.613-4.339 2.876-8.586 3.219-13.559q.204-2.524.417-5.047l.161-2.23C379 222 379 222 380 219c.121-2.762.188-5.499.203-8.262l.017-2.495q.014-2.627.02-5.253c.01-2.623.04-5.244.072-7.867.3-17 .3-17-4.312-33.123a234 234 0 0 1-.875-5.625c-.82-5.153-2.096-9.58-4.125-14.375h-3l.25-2.437c-.333-4.745-2.152-8.348-4.25-12.563h-2l.188-2.187c-.225-3.366-1.32-5.048-3.188-7.813l-1-2h-2l-1-7h-2l-.3-1.672c-.87-2.891-2.247-5.044-3.887-7.578l-1.731-2.703c-5.579-8.164-11.857-15.298-18.832-22.297l-1.52-1.531C318.052 63.539 308.981 55.668 298 50h-4l-1-3c-2.504-1.219-2.504-1.219-5-2v-2l-2.168-.883c-5.335-2.194-10.583-4.467-15.77-6.992C228.118 15.819 168.817 13.012 127 35"/><path fill="#2A1583" d="M307.266 98.035c2.002 1.166 2.002 1.166 5.421 2.403 3.62 1.707 5.577 3.682 8.313 6.562l5 3v2l3 1c1.754 1.777 1.754 1.777 3.563 3.938 1.768 2.095 3.497 4.122 5.437 6.062v3c-1.723 1.543-1.723 1.543-4.062 3.188-3.827 2.853-6.802 5.769-9.84 9.425-3.36 3.824-7.019 7.348-10.656 10.907-2.435 2.398-4.54 4.626-6.442 7.48h-2l-1 3c-1.46 1.438-1.46 1.438-3.375 3-4.245 3.576-8.107 7.44-11.943 11.443-1.191 1.222-2.433 2.394-3.682 3.557h-2l-.625 1.625c-2.47 4.268-5.661 7.804-10.375 9.375l-1.875 2.875C268 195 268 195 265.375 196.5c-3.167 2-3.508 3.952-4.375 7.5h2v3l1.758.648c3.018 1.82 4.244 4.005 6.117 6.977 2.814 4.376 5.717 8.58 8.89 12.7C281 229 281 229 282.564 231.75c1.74 2.723 3.911 4.27 6.437 6.25v2l3 1 1 3 3 1 1.125 3.813C299.3 256.087 304.68 263.787 311 268a261 261 0 0 1 2.055 5c1.755 3.714 4.393 6.805 6.945 10l2.25 2.938c1.588 2.145 1.588 2.145 3.75 3.062l.898 2.273c1.539 3.808 4.027 6.515 6.641 9.641C335 303 335 303 335 306l-4-1v-2h-3l-1-3c-2.1-2.285-4.25-4.4-6.676-6.34-3.204-2.565-5.565-4.86-7.62-8.43-5-7.682-11.996-13.797-18.517-20.168q-3.03-2.977-6.053-5.962a1003 1003 0 0 0-3.753-3.683c-4.27-4.196-4.27-4.196-5.381-6.417l-2.25-1.312c-4.883-2.997-8.332-7.327-12.125-11.563-6.738-7.701-6.738-7.701-14.625-14.125v-2l-1.75-.625c-3.044-1.86-4.287-4.43-6.25-7.375-2.1-1.389-2.1-1.389-4-2v-2l-4-2v-2h-2v-2h-2c0-3 0-3 1.39-4.43l1.86-1.445c2.206-1.792 3.907-3.322 5.688-5.562 2.385-2.965 5.062-5.273 7.964-7.72 2.478-2.177 4.788-4.491 7.098-6.843a5088 5088 0 0 1 9.688-9.812l2.626-2.678 2.51-2.53 2.284-2.315C273 157 273 157 275 157v-3c1.313-1.687 1.313-1.687 3-3h3v-3a373 373 0 0 1 6-4 117 117 0 0 0 4-5c2.804-3.015 5.158-5.435 9-7v-2c1.813-2.125 1.813-2.125 4-4h3c-1.332-3.997-3.563-4.733-7-7v-2l-2.082-.621-2.73-.817-2.708-.808A216 216 0 0 1 287 113c-10.023-.665-19.86-.784-29 4a192 192 0 0 0-4 4h-2v2c-1.574 1.55-1.574 1.55-3.687 3.313-2.488 2.104-4.88 4.2-7.125 6.562C239 135 239 135 236 136l-1 3h-2l-.75 1.875c-1.478 2.512-2.69 2.886-5.25 4.125l-1 3c-4.318 4.773-4.318 4.773-8 6a89 89 0 0 0-2 4c-1.625 1.92-2.838 2.924-5.125 4-2.228.912-2.228.912-2.875 4-1.75 2.188-1.75 2.188-4 4-2.75.25-2.75.25-5 0l-1-3a87 87 0 0 0-4-2c-1.676-1.445-1.676-1.445-3.312-3.125l-1.82-1.863c-2.497-2.69-4.86-5.48-7.192-8.313-1.771-1.795-3.372-2.71-5.676-3.699v-2l-3-1v-2l-1.875-.75c-2.512-1.478-2.886-2.69-4.125-5.25l-3-1v-1c8.093.277 15.516 1.466 23.3 3.549A77.6 77.6 0 0 0 202 141v-2q2.114-1.341 4.23-2.676c2.732-2.044 4.726-4.636 6.907-7.242 1.89-2.112 3.878-3.89 6.05-5.707 3.318-2.807 5.486-5.683 7.813-9.375 19.045-21.286 54.313-30.66 80.266-15.965"/><path fill="#484848" d="M71 100h4v2l3 1v3l1.64.656c3.176 1.809 5.567 4.261 8.11 6.844l1.535 1.512C93 118.747 93 118.747 93 121l1.802.778c2.405 1.337 3.637 2.648 5.372 4.77 4.094 4.832 8.533 9.25 13.04 13.694l5.265 5.227q4.118 4.08 8.243 8.157a4358 4358 0 0 1 7.993 7.929l2.518 2.477 2.298 2.288 2.036 2.013C143 170 143 170 143 172l3 1v2l3 1a132 132 0 0 1 3 5l1.688 1.688L155 184v2l1.613.168c3.52 1.227 5.896 3.647 8.575 6.144l1.654 1.475c4.846 4.462 4.846 4.462 5.158 8.213l-4 2v2c-1.574 1.55-1.574 1.55-3.687 3.313-5.822 4.878-11.007 10.402-16.333 15.81a4860 4860 0 0 1-10.003 10.107 2283 2283 0 0 0-7.578 7.673 1568 1568 0 0 1-7.37 7.448c-1.39 1.4-2.769 2.81-4.148 4.221l-2.559 2.56-2.242 2.27C112 261 112 261 108 261l-.75 1.688c-1.489 2.754-3.134 5.004-5.25 7.312h-3l-.812 1.75c-1.206 2.284-2.62 4.204-4.188 6.25 8.435 8.084 19.571 10.176 30.875 10.438 5.873-.172 10.79-.988 16.125-3.438l3.375-1.5c2.33-1.332 3.8-2.584 5.625-4.5h2l.73-1.758c1.51-2.666 3.237-4.154 5.583-6.117 2.797-2.402 5.335-4.732 7.625-7.625L168 261h2v-2h4l.625-2.812c1.764-4.09 3.43-4.331 7.375-6.188a112 112 0 0 0 5-6l2.063-2c2.135-2.069 2.135-2.069 4-5.25L195 234h3v-3h8l1.563 3.625c1.953 3.921 4.172 6.14 7.585 8.813 2.016 1.7 3.606 3.533 5.29 5.562 2.917 3.449 6.026 5.946 9.695 8.55 2.794 2.17 4.76 4.618 6.867 7.45v1c-8.579-.349-16.696-1.83-25.056-3.716-6.006-1.415-6.006-1.415-11.944-.284-1.81 1.58-1.81 1.58-3.312 3.625-2.957 3.596-6.078 6.57-9.63 9.566-2.966 2.606-5.672 5.447-8.394 8.305C177 285 177 285 175 285l-.262 1.777c-.942 2.837-2.264 3.889-4.55 5.786l-2.083 1.753L166 296l-2.027 1.64c-2.784 1.92-5.72 2.547-8.973 3.36v2c-15.11 7.058-31.692 9.59-48 5l-2.855-.73C95.33 304.976 95.33 304.976 92 303l-1-2-2.172-.773c-3.69-1.601-6.225-4.097-9.078-6.852l-3.434-3.242-1.694-1.609C71.156 285.267 67.572 282.14 64 279c.768-3.831 2.2-5.288 5-8l1-3 2.75-.812c3.262-1.192 3.917-1.67 5.938-4.25C81 260 81 260 84 259c1.493-1.727 1.493-1.727 2.875-3.812 2.391-3.314 4.687-5.896 8.125-8.188h2l.75-1.75c1.867-3.361 4.595-5.634 7.375-8.25 1.83-1.953 2.694-3.634 3.875-6 1.656-1.598 1.656-1.598 3.5-3.062 2.437-1.947 3.723-3.272 5.5-5.938l2.313-1.375c2.859-1.583 2.859-1.583 5.374-4.312L128 214h2l.188-2.187c1.081-3.745 2.817-5.375 5.812-7.813h4v-2h2l-1.75-3.125-.984-1.758c-3.622-6.058-7.87-11.612-12.145-17.215C125 177 125 177 123.367 174.273c-1.335-2.427-1.335-2.427-3.68-4.585-2.765-2.766-4.979-5.656-7.257-8.82-1.368-1.884-1.368-1.884-2.996-3.376-1.595-1.66-2.326-3.141-3.246-5.242-2.4-5.011-5.778-8.912-9.747-12.762-2.344-2.42-3.404-4.321-4.129-7.613-1.148-4.45-3.935-7.5-6.851-10.957C84 119 84 119 84 117l-1.809-.793C77.256 113.489 73.481 107.961 71 103z"/><path fill="#6542B2" d="M355 108c5.29 3.086 6.375 7.077 8.105 12.637.65 2.523.65 2.523 2.895 3.363.852 2.145.852 2.145 1.625 4.813.39 1.309.39 1.309.79 2.644C369 134 369 134 369 138l4 1 .313 3.375L374 146l3 2c.477 2.566.477 2.566.625 5.563-.105 3.53-.105 3.53 1.375 6.437.289 2.906.449 5.812.621 8.727.267 3.283.267 3.283 1.39 6.32 1.4 4.79 1.238 9.526 1.184 14.48l-.008 2.997c-.011 3.138-.036 6.276-.062 9.414q-.016 3.204-.027 6.408-.034 7.827-.098 15.654h-2l-.148 2.5c-.434 6.704-.977 13.387-1.727 20.063l-.43 3.94C377 254.007 376.008 256.09 374 259a174 174 0 0 0-2 4h-2l.125 2.875C370 269 370 269 368 271a503 503 0 0 0-2 6 199 199 0 0 1-3 6h-3l-.34 2.21c-2.085 8.811-9.338 16.685-14.66 23.79 0-2.648.172-4.516 1-7l2-1 .438-2 .562-2 3-1c1.678-2.388 2.853-4.411 3.563-7.25L356 287l2-1c.658-3.03.658-3.03 1-6l1.902-.25c2.234-.535 2.234-.535 3.04-2.5l.62-2.25.72-2.45L366 270a408 408 0 0 1 1.563-4.812l.69-2.145C369 261 369 261 370.067 259.008c1.31-2.817 1.274-5.427 1.395-8.496.539-2.512.539-2.512 2.504-5.696 2.615-4.342 2.88-8.589 3.223-13.566q.204-2.524.417-5.047l.161-2.23C378 222 378 222 379 219c.121-2.762.188-5.499.203-8.262l.017-2.495q.014-2.627.02-5.253c.01-2.623.04-5.244.072-7.867.3-17 .3-17-4.312-33.123a206 206 0 0 1-.937-5.687c-1.085-6.773-1.085-6.773-3.063-13.313l-3-1a109 109 0 0 1-2-8q-.544-2.005-1.125-4l-.875-3h-2l-4-12h-2z"/><path fill="#2A1A8D" d="M285 235c2 1.375 2 1.375 4 3v2l3 1 1 3 3 1 1.125 3.813C299.3 256.087 304.68 263.787 311 268a261 261 0 0 1 2.055 5c1.755 3.714 4.393 6.805 6.945 10l2.25 2.938c1.588 2.145 1.588 2.145 3.75 3.062l.898 2.273c1.539 3.808 4.027 6.515 6.641 9.641C335 303 335 303 335 306l-4-1v-2h-3l-1-3c-2.1-2.285-4.25-4.4-6.676-6.34-3.33-2.665-5.768-5.142-7.992-8.8-3.446-5.297-7.668-9.498-12.207-13.86q-2.312-2.247-4.617-4.5l-2.043-1.969C292 263 292 263 292 262h5v-2h2c-1.196-3.509-1.196-3.509-3.422-6.398-1.804-1.831-2.82-3.644-4.015-5.915-1.511-2.81-3.055-5.503-4.875-8.125C285 237 285 237 285 235"/><path fill="#4D4D4D" d="M71 100h4v2l3 1v3l1.64.656c3.176 1.809 5.567 4.261 8.11 6.844l1.535 1.512C93 118.747 93 118.747 93 121c.888.38.888.38 1.793.77 2.45 1.366 3.743 2.76 5.52 4.918a80 80 0 0 0 7.687 8c1.754 1.703 1.754 1.703 3 3.312-.062 2.938-.062 2.938-1 5l-3-3-1 5c-4.424-.506-6.78-1.95-10-5-2.034-2.787-2.97-4.874-3.75-8.25-1.49-4.467-3.781-7.266-6.79-10.832C84 119 84 119 84 117l-1.809-.793C77.256 113.489 73.481 107.961 71 103z"/><path fill="#7B5CBD" d="M355 108c5.29 3.086 6.375 7.077 8.105 12.637.65 2.523.65 2.523 2.895 3.363.852 2.145.852 2.145 1.625 4.813.26.872.52 1.745.79 2.644C369 134 369 134 369 138l4 1 .313 3.375L374 146l3 2c.477 2.566.477 2.566.625 5.563-.105 3.53-.105 3.53 1.375 6.437.289 2.906.449 5.812.621 8.727.267 3.283.267 3.283 1.39 6.32 1.4 4.79 1.238 9.526 1.184 14.48l-.008 2.997c-.011 3.138-.036 6.276-.062 9.414q-.016 3.204-.027 6.408-.034 7.827-.098 15.654h-1l-.028-3.031C382.03 190.747 382.03 190.747 375 162a206 206 0 0 1-.937-5.687c-1.085-6.773-1.085-6.773-3.063-13.313l-3-1a109 109 0 0 1-2-8q-.544-2.005-1.125-4l-.875-3h-2l-4-12h-2z"/><path fill="#2F1D8D" d="M285 235c2 1.375 2 1.375 4 3v2l3 1 1 3 3 1 1.125 3.813C299.3 256.087 304.68 263.787 311 268c1.188 3.625 1.188 3.625 2 7l-1.812-1.937c-2.096-2.266-2.096-2.266-5.188-3.063l-1-3-2-1-1-3-2-1 1 3c-1.437 2.188-1.437 2.188-3 4l-6-7h5v-2h2c-1.196-3.509-1.196-3.509-3.422-6.398-1.804-1.831-2.82-3.644-4.015-5.915-1.511-2.81-3.055-5.503-4.875-8.125C285 237 285 237 285 235"/><path fill="#A198C8" d="M300 130h2c-.187 1.813-.187 1.813-1 4l-5 3a280 280 0 0 0-1 4c-2.312 2-2.312 2-5 4l-2.125 2.25C286 149 286 149 283 149l-.75 1.773c-1.448 2.58-2.989 3.944-5.25 5.852-6.297 5.491-12.1 11.45-17.93 17.43l-2.289 2.324-2.06 2.111C253 180 253 180 251 180l-.75 1.875c-1.456 2.476-2.628 3.076-5.25 4.125v2l-2-1c5-5 5-5 7.376-7.372 2.483-2.487 4.952-4.987 7.417-7.491l5.394-5.45c.915-.93 1.83-1.862 2.772-2.822l2.646-2.666 2.411-2.442C273 157 273 157 275 157v-3c1.313-1.687 1.313-1.687 3-3h3v-3a373 373 0 0 1 6-4 117 117 0 0 0 4-5c2.804-3.015 5.158-5.435 9-7z"/><path fill="#6D63B3" d="M313 275c3.276 2.184 4.032 3.67 6 7 2.98 4.083 2.98 4.083 7 7l.898 2.273c1.539 3.808 4.027 6.515 6.641 9.641C335 303 335 303 335 306l-4-1v-2h-3l-1-3c-2.69-2.927-5.586-5.513-8.625-8.062-2.508-2.115-4.566-4.17-6.375-6.938l1-2 1.46 1.496c.633.64 1.264 1.281 1.915 1.942l1.898 1.933c1.644 1.708 1.644 1.708 3.727 2.629l-1.687-1.937C313 279.378 313 279.378 313 275"/><path fill="#D3C8E9" d="M377 171h1c1.619 6.188 2.288 11.92 2.23 18.305v2.563q-.006 2.655-.024 5.309c-.019 2.712-.02 5.423-.02 8.136l-.018 5.18-.003 2.452c-.028 3.27-.124 5.93-1.165 9.055-.188 1.456-.34 2.916-.465 4.379l-.236 2.54q-.237 2.649-.461 5.298l-.24 2.537-.203 2.322C377 241 377 241 375 243q.465-5.282.938-10.562l.263-3.002c.36-4.01.726-7.975 1.358-11.952.62-4.896.586-9.741.566-14.672l.012-2.982-.004-2.873-.004-2.594c-.124-2.266-.57-4.174-1.129-6.363a64 64 0 0 1-.098-4.11l.01-2.285.026-2.355.013-2.402q.02-2.925.049-5.848"/><path fill="#858585" d="M71 100h4v2l3 1v3l1.64.648c3.2 1.833 5.57 4.35 8.11 6.977l1.535 1.563A897 897 0 0 1 93 119l-1 2-1.898-1.934-2.477-2.504-2.46-2.496c-1.988-2.1-1.988-2.1-4.165-3.066l2 6-5-5-2.125-2C72.932 106.86 71 104.372 71 100"/><path fill="#886CC3" d="M18 220h1l.367 2.379c.906 5.68 1.998 11.101 3.633 16.621q.453 2.31.875 4.625c1.018 5.382 2.686 10.497 4.418 15.688C29 262 29 262 28 264l-.312-1.937L27 260l-3-1-.586-6.152L23 251l-2-1c-.598-2.906-.598-2.906-1.062-6.5-.202-4.074-.202-4.074-1.938-7.5a210 210 0 0 1-.062-8.062l.013-2.3q.02-2.818.049-5.638"/><path fill="#AC98D5" d="M355 108c5.29 3.086 6.375 7.077 8.105 12.637.65 2.523.65 2.523 2.895 3.363.795 2.242 1.488 4.52 2.125 6.813l1.07 3.769C370 138 370 138 370 142h-2l-.875-3.562c-.958-3.84-2.017-7.64-3.125-11.438h-2l-4-12h-2z"/><path fill="#B6B6B6" d="M121 171c3.427 2.08 4.876 4.422 6.734 7.91 1.55 2.559 3.367 4.78 5.266 7.09 8.01 9.815 8.01 9.815 9 16h-2v2l-2-1 1-6-1.937-.312L135 196l-1-3-2-1-.312-2.375L131 187l-2.375-1.25c-3.49-2.326-3.865-4.565-4.95-8.496-.674-2.25-1.57-4.188-2.675-6.254"/><path fill="#3E3E3E" d="M81 111c3.556 1.525 5.985 3.625 8.75 6.313l2.422 2.3c2.103 2.746 2.234 4.014 1.828 7.387-4 0-4 0-5.598-1.574l-1.465-2.114-1.542-2.21L84 119l-1.875-2.812C81 114 81 114 81 111"/><path fill="#967CCA" d="m51 94 1 3c-.879 1.42-1.775 2.831-2.754 4.184-1.912 2.787-3.426 5.778-5 8.765C43 112 43 112 41.476 113.48c-1.83 1.884-2.562 3.717-3.538 6.145-1.72 4.266-1.72 4.266-3.938 5.375l1-5h2l-.176-2.187c.21-3.365 1.177-4.993 2.989-7.813l1.582-2.5L43 105l1.574-2.75C46 100 46 100 48 99l.5-2 .5-2z"/><path fill="#7E5EBE" d="M20 163c1.31 3.742.73 6.732.102 10.598-1.333 8.932-1.547 17.823-1.727 26.84l-.117 4.853Q18.116 211.146 18 217h-1q-.037-8.725-.055-17.45-.008-2.964-.02-5.927c-.013-2.852-.018-5.704-.023-8.557l-.015-2.643C16.885 167.672 16.885 167.672 20 163"/><path fill="#7F7F7F" d="M93 121c4.206 1.502 5.739 4.286 8 8l-6-2v6h2l.75 2.75c1.29 3.354 2.57 4.927 5.25 7.25l-1 2c-6.753-5.252-9.166-9.676-11-18h3z"/><path fill="#A39CCC" d="M285 235c2 1.375 2 1.375 4 3v2l3 1 1 3 3 1c.879 1.926.879 1.926 1.563 4.313.902 3.086 1.922 5.846 3.437 8.687-5-3.674-8.053-7.29-10.867-12.816-1.034-1.993-2.161-3.785-3.445-5.621C285 237 285 237 285 235"/><path fill="#A7A7A7" d="M157 186c5.879 4.031 10.509 8.47 15 14l-2 4h-2v2c-1.68 1.691-1.68 1.691-3.875 3.563l-2.18 1.878C160 213 160 213 158 214c1.152-2.468 2.048-4.048 4-6a89 89 0 0 0 2-4l3 1v-2l2-1c-.4-4.408-3.387-6.453-6.562-9.125A137 137 0 0 1 157 188z"/><path fill="#7E7E7E" d="m70 268 3 1-1.277 1.426-1.66 1.887-1.653 1.863C66.8 276.052 66.8 276.052 66 279l5-1-1 4h3v2l4 1-2 4-1.645-1.68-2.168-2.195-2.144-2.18c-2.087-2.099-2.087-2.099-5.043-3.945.548-3.839 2.277-5.362 5-8z"/><path fill="#B7A4DB" d="M361 279c1 2 1 2 .434 3.848-2.616 5.815-5.761 10.95-9.434 16.152l-1.941 2.79Q347.539 305.4 345 309c0-2.648.172-4.516 1-7l2-1 .438-2 .562-2 3-1c1.678-2.388 2.853-4.411 3.563-7.25L356 287l2-1 .5-3 .5-3z"/><path fill="#9088C5" d="m323 288 3 1c.699 1.653 1.36 3.323 2 5 1.756 2.392 3.636 4.638 5.54 6.914C335 303 335 303 335 306l-4-1v-2h-3l-1-3-2-1 1-2 2 1-1.094-1.68-1.406-2.195-1.406-2.18C323 290 323 290 323 288"/><path fill="#9083BB" d="m241 188 2 1-2 3h-2l-.812 1.813C237 196 237 196 235.438 197.5c-1.701 1.775-2.026 3.11-2.438 5.5h3v2l1.938.75C240 207 240 207 240.75 209.125L241 211l-3-1v-2l-4-2v-2h-2v-2h-2c0-3 0-3 1.39-4.43l1.86-1.445c3.024-2.454 5.431-4.971 7.75-8.125"/><path fill="#876AC2" d="M27 134h3l-.84 3.324-1.098 4.363-.552 2.186c-.928 3.695-1.808 7.38-2.51 11.127h-2l-1 7h-1c-.25-7.625-.25-7.625 2-11 .666-2.275.666-2.275 1.125-4.687l.508-2.45L25 142h2z"/><path fill="#B4B4B4" d="m108 261 2 1a2956 2956 0 0 1-3.187 4.125l-1.922 2.488a124 124 0 0 1-4.829 5.7c-2.468 2.651-2.468 2.651-2.062 6.687l-4-2c0-4.337 2.08-5.944 5-9h3l.75-1.687c1.466-2.713 3.28-4.949 5.25-7.313"/><path fill="#9F87CF" d="M380 187h1q.075 7.74.11 15.479.015 2.63.04 5.26c.025 2.527.037 5.054.045 7.581l.032 2.359c0 4.505-.52 8.075-2.227 12.321h-1c-.125-7.625-.125-7.625 1-11 .153-2.438.257-4.853.316-7.293l.063-2.14q.097-3.377.183-6.755l.131-4.583q.16-5.614.307-11.229"/><path fill="#D1C6E8" d="m35 124 1 2-3 6c-.708 3.237-.708 3.237-1 6h-2l-.113 2.117-.2 2.758-.175 2.742C29 148 29 148 26 150c1.012-8.266 2.856-19.856 9-26"/><path fill="#5C4EA4" d="M300 130h2c-.187 1.813-.187 1.813-1 4l-5 3a280 280 0 0 0-1 4c-2.312 2-2.312 2-5 4a178 178 0 0 0-4 4l-2-1c2.599-4.235 5.11-6.964 9-10q1.375-1.599 2.688-3.25L298 132h2z"/><path fill="#AB96D5" d="M44 294c3 2 3 2 4 5l3 1c1.448 2.896 2 4.742 2 8l4 1v3l3 1-1 3v-2h-3c-2.468-2.628-4.275-5.423-6-8.562-1.788-3.428-1.788-3.428-4.25-5.625C44 298 44 298 44 294"/><path fill="#DCDCDC" d="M65 93h3v2h4v3l1.938.313L76 99l1 3h-2v-2h-4l1 4h-2v-4h-3v-3h-2z"/><path fill="#4E28A6" d="m370 138 3 1 .313 3.375L374 146l3 2c.477 2.566.477 2.566.625 5.563-.105 3.53-.105 3.53 1.375 6.437.141 2.67.042 5.324 0 8h-1l-.335-1.728c-.505-2.572-1.022-5.14-1.54-7.71l-.527-2.72-.528-2.588-.476-2.396L374 149l-2-1c-1.445-3.613-2-6.067-2-10"/><path fill="#200E86" d="m300 262 3 1v3l3 1-1 5-5-1c-.845-3.378-1.108-5.675 0-9"/><path fill="#987FCB" d="m71 71 2 1a797 797 0 0 1-3.875 5l-2.18 2.813L65 82h-2l-1 3-4 4c-1.235 2.133-1.235 2.133-2 4l-2-1c.54-3.786 2.117-5.554 5-8h2l.25-1.773c.973-2.888 2.4-3.946 4.75-5.852 2.956-2.32 2.956-2.32 5-5.375"/><path fill="#665399" d="M164 135c2.105.114 4.209.242 6.313.375 1.171.07 2.343.14 3.55.21C177 136 177 136 180 138l-8-1 1 6c-3.519-1.407-4.386-2.665-6-6l-3-1z"/><path fill="#6154AA" d="m301 258 5 5 2.688 2.375c2.846 3.232 3.415 5.465 4.312 9.625l-1.812-1.937c-2.096-2.266-2.096-2.266-5.188-3.063l-1-3-2-1c-.633-1.848-.633-1.848-1.125-4.062l-.508-2.223z"/><path fill="#CDC0E6" d="M370 142c2 1 2 1 2.816 2.969 1.475 5.003 2.548 9.781 3 14.98.243 2.711.703 5.373 1.184 8.051l-3-1-.367-2.93c-.956-7.423-2.015-14.755-3.633-22.07"/><path fill="#9F9F9F" d="M170 259h2l-1 4h-3l-1 3h-2l-.68 1.703c-1.707 2.97-3.868 4.8-6.445 7.047l-2.758 2.422L153 279c0-3 0-3 2.012-5.05l2.675-2.262c3.018-2.612 5.84-5.114 8.313-8.25l2-2.438h2z"/><path fill="#1D0F87" d="M312 279h3c1.57 1.863 1.57 1.863 3.125 4.313l1.57 2.425C321 288 321 288 322 291c-4.057-1.56-7.476-4.484-10-8z"/><path fill="#704FB7" d="M21 242h1v5h2q1.293 3.683 2.563 7.375l.748 2.117c.62 1.818 1.16 3.662 1.689 5.508l-1 2-.312-1.937L27 260l-3-1-.586-6.152L23 251l-2-1z"/><path fill="#393939" d="M95 127c2.169.506 4 1 6 2l-1 7h-3v-3h-2z"/><path fill="#7E7E7E" d="M227 256c3.18 1.376 5.049 2.9 7.25 5.563l1.578 1.878C237 265 237 265 237 266l-12-1v-1h6c-1.125-2.972-2.223-5.334-4-8"/><path fill="#818181" d="M198 231h8l2 6-2.25-1.937c-2.461-1.846-3.785-2.624-6.75-3.063l-.375 1.813C198 236 198 236 196 239c-2.125.688-2.125.688-4 1l3-6h3z"/><path fill="#C7B9E3" d="M22 159h1c.349 7.63.002 13.924-3 21h-1c-.432-7.35 1.182-13.902 3-21"/><path fill="#1E0677" d="M255 99c-6.75 4-6.75 4-9 4v2h-3l-1 3h-2v-4a595 595 0 0 1 5.813-3.062l3.269-1.723C252 98 252 98 255 99"/><path fill="#7254B8" d="m293 47 11 3 1 4h2l1-2 2 6c-3.532-1.695-6.733-3.728-10-5.879-1.951-1.224-1.951-1.224-4.187-1.586L294 50z"/><path fill="#D2C6E8" d="m23 243 3 1 .586 6.055c.278 2.172.278 2.172 2.414 3.945.27 2.688.087 5.291 0 8-1.998-2.997-2.99-5.537-4.125-8.937l-1.07-3.153C23 247 23 247 23 243"/><path fill="#9A9A9A" d="M71 100h4v2l3 1-1 2-2-1 1.375 2.25A89 89 0 0 1 80 113c-3.887-3.023-6.85-5.46-9-10z"/><path fill="#AC97D5" d="m87 58 2 1c-3.168 4.562-6.234 6.4-11 9-1.859 1.602-1.859 1.602-3 3l-2-1a2831 2831 0 0 1 5.313-4.875l1.513-1.395C82.142 61.614 84.383 59.745 87 58"/><path fill="#1E0775" d="M233 199h3l.188 1.875c.64 2.403.64 2.403 3.375 3.375L242 205v4c-2 0-2 0-4.125-1.875C236 205 236 205 236 203h-3z"/><path fill="#624D99" d="M193 163h4v3h3v2h4l1-3 3-1c0 2 0 2-1.687 4.125C204 170 204 170 201.25 170.25L199 170l-1-3a90 90 0 0 0-4-2z"/><path fill="#1C0A81" d="M296 138h2c-.546 3.795-2.054 5.31-4.937 7.75l-2.153 1.86C289 149 289 149 287 149v-2h2l1-3h2l1-3h2z"/><path fill="#211088" d="M308 121c1.938.313 1.938.313 4 1l1 3h-2l-.812 1.813c-1.173 2.16-2.382 3.545-4.188 5.187l-1-2 1.438-2.375c1.903-2.689 1.903-2.689 1.562-6.625"/><path fill="#939393" d="M174 286c0 3 0 3-1.61 4.719l-2.14 1.781-2.11 1.781C162.265 299 162.265 299 160 299l1-4 1.773-.281c2.738-.884 3.904-2.125 5.852-4.219 3.205-3.415 3.205-3.415 5.375-4.5"/><path fill="#7757BB" d="M29 264c2.22 2.22 3 3.985 4.188 6.875l1.105 2.617c.754 2.673.646 3.937-.293 6.508l-1-4h-3z"/><path fill="#7263AB" d="m244 214 1.625 1.438c2.803 1.844 5.071 2.187 8.375 2.562l1 7c-2.5-1.375-2.5-1.375-5-3v-2l-1.875-.75c-2.476-1.456-3.076-2.628-4.125-5.25"/><path fill="#8172B3" d="M250 119h5l-1 2h-2v2c-1.61 1.656-1.61 1.656-3.75 3.5l-2.11 1.844c-1.985 1.536-3.859 2.628-6.14 3.656q1.404-1.659 2.813-3.312l1.582-1.864C246 125 246 125 247.637 123.457c1.618-1.526 1.618-1.526 2.363-4.457"/><path fill="#4B4B4B" d="M81 111c3.367 1.393 4.986 2.979 7 6h-2l2 6c-2.955-2.751-5.152-5.397-7-9z"/><path fill="#7D5FBE" d="m319 334 2 1-2 2v4l-10 3 2-3h2v-2a159 159 0 0 1 6-5"/><path fill="#9D86CE" d="M343 309c0 2.621-.313 4.51-1 7h-4l-2 5h-3c1.237-3.71 3-4.6 6-7l1-3z"/><path fill="#888" d="m199 260 2 1-1.39 1.355c-2.814 2.772-5.475 5.474-7.923 8.582L190 273h-2v-5l4 1 .688-1.687c1.671-2.945 3.865-4.995 6.312-7.313"/><path fill="#9D9D9D" d="M133 188c4.723 2.868 7.14 7.204 8.75 12.438L142 202h-2v2l-2-1 .313-2.562c-.374-4.112-1.683-5.794-4.22-8.922C133 190 133 190 133 188"/><path fill="#7064B1" d="M291 245c7.916 6.311 7.916 6.311 10 11l-1 2c-3.61-3.449-6.742-6.483-9-11z"/><path fill="#9F88CF" d="M374 244h1c.315 5.99-.318 9.636-3 15-1.225-2.45-.988-3.675-.687-6.375l.238-2.336c.468-2.387 1.266-4.175 2.449-6.289"/><path fill="#B2AAD2" d="m267 209 4 1v4l3 1c1.188 3.563 1.188 3.563 2 7-3.588-3.389-6.457-6.761-9-11z"/><path fill="#8467C1" d="M355 108c5.347 3.324 6.475 7.2 8 13-3-2-3-2-4-5l-3-1z"/><path fill="#7A5BBC" d="m51 94 1 3c-1.328 2.191-1.328 2.191-3.25 4.563l-1.89 2.378C45 106 45 106 42 108l2-4 1-2.187C46 100 46 100 48 99l.5-2 .5-2z"/><path fill="#1B0578" d="M261 175c-1.35 4.419-3.261 6.343-7 9l-1-3 2-1 1-3c3-2 3-2 5-2"/><path fill="#140065" d="m194 160 5 2v3l4-1v4h-3v-2h-3v-3l-3-1z"/><path fill="#1C0669" d="m172 137 6 1-3 1v2h2v3c-3.875-.875-3.875-.875-5-2a100 100 0 0 1 0-5"/><path fill="#331C7D" d="M218 126c.188 2.375.188 2.375 0 5l-3 2-3-1v2l-2-1c5.66-7 5.66-7 8-7"/><path fill="#6F66B6" d="M331 117a271 271 0 0 1 3.5 2.813l1.969 1.582C338 123 338 123 338 126l-4 2 1-6-4-1z"/><path fill="#7E6EAF" d="m235 106 2 1-2.5 2.188c-2.744 2.541-2.744 2.541-2.812 5.624L232 117h-6c1.244-3.732 3.172-5.307 6-8l1.813-1.812z"/><path fill="#DDDBEE" d="m333 301 3 1v3h3v4h-5l-1-3h2z"/><path fill="#D0C4E7" d="M370 257c1.38 2.76.624 4.02-.25 6.938l-.766 2.652c-1.003 2.456-1.984 3.707-3.984 5.41-.125-2.375-.125-2.375 0-5l2-2 .5-3.562.5-3.438z"/><path fill="#4F3C97" d="m255 225 9 2-2 1 2 6a592 592 0 0 1-3.375-2.812l-1.898-1.583C257 228 257 228 255 225"/><path fill="#382187" d="m242 208 3 1-1 2 1.938.688C248 213 248 213 248.75 215.625L249 218a592 592 0 0 1-3.375-2.812l-1.898-1.583C242 212 242 212 240 209z"/><path fill="#6C4BB6" d="M27 134h3l-3 12h-2l-1 2 1-6h2z"/><path fill="#210870" d="M209 134h3c-.56 3.243-1.413 4.93-4 7h-2c.75-4.75.75-4.75 3-7"/><path fill="#A096C7" d="m263 197 .375 1.688c.593 2.39.593 2.39 1.688 4.875C266 206 266 206 266 209l-3-2v-3h-2c.875-5.875.875-5.875 2-7"/><path fill="#7970BA" d="m321 108 5 2v2l3 1c1.188 2.063 1.188 2.063 2 4l-4-1v-2l-3-1v-2l-3-1z"/><path fill="#7354B9" d="M289 357c0 2 0 2-1.562 4.125-3.245 2.495-5.448 2.182-9.438 1.875 1.27-2.538 2.416-2.894 4.938-4.125l2.152-1.07C287 357 287 357 289 357"/><path fill="#5933AC" d="m351 299 1 2c-.672 1.84-.672 1.84-1.75 3.938l-1.047 2.09c-1.207 1.978-2.5 3.411-4.203 4.972l-2-1z"/><path fill="#210A72" d="M221 122h3v4h-3v2h-3c.573-2.867.861-3.861 3-6"/><path fill="#7362A8" d="M231 136h5l-1 3h-2l-.75 1.875c-1.456 2.476-2.628 3.076-5.25 4.125l1.438-1.687c1.686-2.496 2.152-4.358 2.562-7.313"/><path fill="#463391" d="M260 96c-2.525 2.525-4.138 2.557-7.625 3.125l-3.04.508L247 100c3.582-3.869 7.797-6.001 13-4"/><path fill="#ABA6D4" d="M331 299c2 1.813 2 1.813 4 4v3l-4-1v-2h-3l1-2 2 1z"/><path fill="#BAD" d="m35 124 1 2c-.996 2.383-.996 2.383-2.437 5.125l-1.434 2.758L31 136c-.652-1.734-.652-1.734-1-4 .996-2.14.996-2.14 2.438-4.25l1.433-2.14z"/><path fill="#7469B4" d="m306 122 3 1c-1.875 4.75-1.875 4.75-3 7l-4-1 2-3h3z"/><path fill="#E0D8EF" d="M20 228h3v11h-1c-1.193-3.877-2-6.916-2-11"/><path fill="#4D4D4D" d="m128 214 2 1c-1.375 2.5-1.375 2.5-3 5h-2l-1 3-2-3 2.438-1.875c2.6-1.867 2.6-1.867 3.562-4.125"/><path fill="#968DC5" d="M300 130h2c-.187 1.813-.187 1.813-1 4-2.5 1.625-2.5 1.625-5 3l-1 2-2-1a159 159 0 0 1 5-6h2z"/><path fill="#412E91" d="M264 234c3.403 1.059 6.014 2.009 9 4v3c-4.419-1.35-6.343-3.261-9-7"/><path fill="#7D7D7D" d="m163 204 3 1c-1.583 4.274-4.506 6.265-8 9 1.152-2.468 2.048-4.048 4-6 .643-2.069.643-2.069 1-4"/><path fill="#3C2588" d="M243 188h2v2h-2v2l2 1-3 2v-2h-2v2l-2-1a159 159 0 0 1 5-6"/><path fill="#321C86" d="m261 171 1 3 2 1-3 2v-2l-5 2z"/><path fill="#2F1A86" d="m267 165 2 4c-1.812 1.063-1.812 1.063-4 2l-3-1z"/><path fill="#311E88" d="m273 159 2 4c-1.812 1.063-1.812 1.063-4 2l-3-1z"/><path fill="#1F0870" d="M213 152h2c.625 1.875.625 1.875 1 4l-2 2h-4v-2l2-1z"/><path fill="#D3D3D3" d="M101 144c5.571 5.143 5.571 5.143 6 9l-3-1v-3l-3-1z"/><path fill="#370F9B" d="m70 69 3 2h-2l-.875 1.938C69 75 69 75 67 76c-.187-2.375-.187-2.375 0-5z"/><path fill="#24158C" d="M317 283c2.252 2.688 3.882 4.646 5 8-3.367-1.393-4.986-2.979-7-6h2z"/><path fill="#3F3F3F" d="M192 263h2c-.506 2.169-1 4-2 6h-3c.573-2.867.861-3.861 3-6"/><path fill="#B2B2B2" d="M198 231h8l2 6-2.187-2c-3.029-2.154-4.21-2.412-7.813-2z"/><path fill="#30177A" d="m209 158 4 1-7 6v-4h3z"/><path fill="#2F1674" d="m180 146 3 1 1 6-6-5z"/><path fill="#BBB" d="M68 96h3v3l3 1h-3l1 4h-2c-1.257-2.906-2-4.796-2-8"/><path fill="#6440B1" d="M342 89h4l2 8c-4.875-4.625-4.875-4.625-6-8"/><path fill="#270193" d="M342 317v3h-3v3h-3v-3c3.333-3 3.333-3 6-3"/><path fill="#4F29A7" d="m363 281 1 3-2 1c-.656 2.527-.656 2.527-1 5h-3l2-7h3z"/><path fill="#3A3A3A" d="M95 273v3h-3v3l-3-1c0-2 0-2 1.313-3.625C92 273 92 273 95 273"/><path fill="#9991C8" d="M307 266c1.875.563 1.875.563 4 2 1.25 3.625 1.25 3.625 2 7-5.571-5.143-5.571-5.143-6-9"/><path fill="#3F3F3F" d="M129 236h3l-1 4-4 1v-3h2z"/><path fill="#A1A1A1" d="M138 204c-.187 1.813-.187 1.813-1 4-2.265 1.568-4.541 2.77-7 4 1.517-3.54 3.753-8 8-8"/><path fill="#1F0771" d="M225 143v4h-2v2h-3c0-3 0-3 1.375-4.687C223 143 223 143 225 143"/><path fill="#1F0C85" d="M304 132c-.812 2.438-.812 2.438-2 5l-3 1v-4c3-2 3-2 5-2"/><path fill="#6845B3" d="m323 69 6 3 1-2v6a858 858 0 0 1-3.5-2.937l-1.969-1.653L323 70z"/><path fill="#3D3D3D" d="m180 252 4 1a91 91 0 0 1-4 4h-2v-3h2z"/><path fill="#4D4D4D" d="M121 221c0 3.204-.743 5.094-2 8l-3-2z"/><path fill="#1B0474" d="M240 193h2v3h-2l-1 3h-2v-4h3z"/><path fill="#6C4BB5" d="m370 138 3 1v9h-1c-1.316-3.62-2-6.096-2-10"/><path fill="#636363" d="m78 108 5 2-2 1 2 6c-3.861-2.574-3.943-4.61-5-9"/><path fill="#8063BF" d="M107 42h6l-1 2h-2v2l-5 1z"/></svg>